<?xml version="1.0" encoding="utf-8"?>
<!-- Generator: Adobe Illustrator 19.2.1, SVG Export Plug-In . SVG Version: 6.00 Build 0)  -->
<svg version="1.1" id="layer" xmlns="http://www.w3.org/2000/svg" xmlns:xlink="http://www.w3.org/1999/xlink" x="0px" y="0px"
	 viewBox="0 0 652 652" style="enable-background:new 0 0 652 652;" xml:space="preserve">
<style type="text/css">
	.st0{fill:#FFFFFF;}
	.st1{fill:#00589D;}
	.st2{fill:#F26A24;}
	.st3{fill:#424143;}
	.st4{fill:#006A40;}
</style>
<path class="st0" d="M106.7,315.4c0,22.4-18.1,40.5-40.5,40.5s-40.5-18.1-40.5-40.5c0-22.4,18.1-40.5,40.5-40.5
	S106.7,293,106.7,315.4"/>
<path class="st1" d="M157.4,345.7h-22.4c-2.7,0-4.8-2.2-4.8-4.9v-50.6c0-2.7,2.1-4.8,4.8-4.8H156c11.5,0,18.4,6.7,18.4,15.4
	c0,8.8-5.4,11.9-7.2,12.6c2.9,0.7,10.8,4.1,10.8,15.1C177.9,337.8,170.3,345.7,157.4,345.7 M155.6,294.3H140v15.2h15.6
	c6.2,0,9.1-3.4,9.1-7.6C164.7,297.6,161.9,294.3,155.6,294.3 M157.8,318.3H140v18.5h17.8c7.1,0,10.4-4.6,10.4-9.2
	C168.2,322.9,165,318.3,157.8,318.3 M205.8,345.7h-14.8c-2.7,0-4.9-2.1-4.9-4.9v-50.6c0-2.7,2.2-4.8,4.9-4.8h14.8
	c20.1,0,31.2,13.5,31.2,30.1C237,332.2,225.8,345.7,205.8,345.7 M205.1,294.3h-9.3v42.5h9.3c14.2,0,22.2-8.4,22.2-21.3
	C227.3,302.6,219.5,294.3,205.1,294.3"/>
<path class="st2" d="M48.9,313.3l-22.9,7.8c-0.3-1.9-0.4-3.8-0.4-5.7c0-5.9,1.3-11.6,3.6-16.6l19.8,14l0.2,0.3L48.9,313.3 M66,274.9
	c-8,0-15.4,2.4-21.7,6.4c0,0,16.1,17,16.6,17.6l0.3,0.2l0.2-0.3C61.7,297.7,66,274.9,66,274.9 M53.3,304.1l0-0.2l-9.1-22.5
	c-6.4,4.2-11.5,10.1-14.8,17.1l23.5,5.8l0.2,0L53.3,304.1 M83.4,313.3l22.9,7.8c0.3-1.9,0.4-3.8,0.4-5.7c0-5.9-1.3-11.6-3.6-16.6
	l-19.8,14l-0.2,0.3L83.4,313.3 M70.8,298.8l0.2,0.3l0.3-0.2c0.5-0.6,16.6-17.6,16.6-17.6c-6.3-4-13.7-6.3-21.7-6.4
	C66.3,274.9,70.6,297.7,70.8,298.8 M79.3,304.3l0.2,0l23.5-5.8c-3.2-7-8.4-12.9-14.8-17.1l-9.1,22.5l0,0.2L79.3,304.3"/>
<path class="st2" d="M66.2,355.9c20.3,0,37.1-14.9,40.1-34.4l-15.1,2.1l-0.4,0.3c-3,8.7-10.5,15.4-19.9,17.1c3.6-1.7,6-5.4,6-9.6
	c0-5.9-4.8-10.7-10.7-10.7c-5.9,0-10.7,4.8-10.7,10.7c0,4.2,2.5,7.9,6,9.6c-9.4-1.7-16.9-8.3-19.9-17.1l-0.4-0.3l-15.1-2.1
	C29.1,341,45.9,355.9,66.2,355.9"/>
<path class="st3" d="M511.9,372.3l-0.3,0.3h-0.7l-0.2-0.3l2.4-13.8l0.3-0.3l0.7-0.1l0.3,0.3l-1,5.5c0.9-0.8,2.2-1.3,3.6-1.3
	c1.7,0,2.6,1,2.6,2.5c0,0.5-0.1,1.1-0.2,1.6l-1,5.7l-0.3,0.3h-0.7l-0.2-0.3l1-5.9c0.1-0.3,0.1-0.7,0.1-1c0-1-0.4-1.8-1.7-1.8
	c-1.1,0-2.4,0.6-3.3,1.4"/>
<path class="st3" d="M530.7,372l-0.2,0.3c-0.2,0.1-0.8,0.4-1.4,0.4c-0.7,0-0.9-0.5-0.9-1.1l0.1-0.7h0c-0.6,0.9-1.8,1.9-3.5,1.9
	c-2.2,0-3.1-1.7-3.1-3.8c0-1.6,0.7-3.5,1.8-4.8c0.9-1,2.1-1.7,3.6-1.7c1.5,0,2.6,0.5,3.5,1l0.2,0.3l-1.2,6.7l-0.1,0.8l0.3,0.4
	l0.8-0.3l0.2,0.1 M529.3,364.3c-0.5-0.4-1.2-0.7-2.3-0.7c-1,0-1.9,0.5-2.5,1.2c-1,1.1-1.6,2.9-1.6,4.3c0,1.7,0.8,2.7,2.1,2.7
	c1.6,0,2.7-1.1,3.3-2.3L529.3,364.3z"/>
<path class="st3" d="M539.7,363.4l-0.2,0.5l-0.4,0.1c-0.6-0.2-1.3-0.4-1.9-0.4c-1.1,0-2.2,0.6-2.2,1.8c0,1.9,4.1,1.5,4.1,4.2
	c0,1.7-1.4,3.3-4,3.3c-0.9,0-1.8-0.3-2.4-0.6l-0.1-0.3l0.2-0.5l0.4-0.1c0.7,0.3,1.4,0.5,2.1,0.5c1.2,0,2.6-0.8,2.6-2.1
	c0-2.1-4.1-1.6-4.1-4.2c0-2,1.9-3,3.6-3c0.8,0,1.5,0.1,2.2,0.5L539.7,363.4"/>
<path class="st3" d="M547.1,372.3c-0.3,1.6-0.7,2.9-1.6,3.8c-0.6,0.6-1.6,1-2.8,1c-0.4,0-0.6,0-0.9-0.1l-0.1-0.3l0.1-0.5l0.2-0.2
	c0.1,0,0.3,0.1,0.8,0.1c0.7,0,1.5-0.3,1.9-0.8c0.5-0.6,0.8-1.5,1-2.8l1.7-9.4l0.3-0.3h0.7l0.2,0.3 M548.4,361
	c-0.4,0-0.7-0.2-0.7-0.6c0-0.5,0.4-0.9,0.9-0.9c0.4,0,0.7,0.2,0.7,0.6C549.4,360.6,548.9,361,548.4,361"/>
<path class="st3" d="M554,372.8c-2.5,0-3.5-1.6-3.5-3.8c0-3.2,1.9-6.5,5.5-6.5c2.5,0,3.6,1.6,3.6,3.8
	C559.5,369.5,557.5,372.8,554,372.8 M555.7,363.6c-2.7,0-4,3-4,5.4c0,1.6,0.6,2.9,2.3,2.9c2.7,0,4-3.1,4-5.4
	C558.1,364.9,557.5,363.6,555.7,363.6"/>
<path class="st3" d="M562.6,372.3l-0.3,0.3h-0.7l-0.2-0.3l1.7-9.3l0.3-0.3h0.7l0.2,0.3 M563.9,361c-0.4,0-0.7-0.2-0.7-0.6
	c0-0.5,0.5-0.9,1-0.9c0.4,0,0.7,0.2,0.7,0.6C564.9,360.6,564.4,361,563.9,361"/>
<path class="st3" d="M567.3,372.3l-0.3,0.3h-0.7l-0.2-0.3l1.7-9.3l0.3-0.3h0.6l0.2,0.3l-0.1,0.9c1.1-0.8,2.4-1.4,3.7-1.4
	c1.7,0,2.6,0.9,2.6,2.6c0,0.3-0.1,0.8-0.1,1.2l-1.1,6l-0.3,0.3h-0.7l-0.2-0.3l1-5.9c0.1-0.4,0.1-0.8,0.1-1.2c0-1.1-0.6-1.6-1.8-1.6
	c-1,0-2.3,0.6-3.3,1.4"/>
<path class="st3" d="M578.5,367.8l-0.1,1c0,1.7,0.8,3,2.8,3c0.8,0,1.7-0.2,2.4-0.4c0.3-0.1,0.4,0,0.4,0.1l0,0.4l-0.3,0.4
	c-0.9,0.4-2,0.5-2.9,0.5c-2.5,0-3.8-1.5-3.8-3.9c0-1.7,0.6-3.5,1.8-4.8c1-1,2.2-1.7,3.7-1.7c1.9,0,3,1.3,3,3.2
	c0,0.6-0.1,1.2-0.2,1.7c-0.1,0.3-0.1,0.4-0.5,0.4 M584.2,366.9c0.1-0.2,0.1-0.8,0.1-1.2c0-1.2-0.6-2.2-2-2.2c-1,0-1.9,0.5-2.5,1.2
	c-0.5,0.6-0.9,1.4-1.1,2.2H584.2z"/>
<path class="st3" d="M594.9,372.4l-0.3,0.3h-0.8l-0.2-0.3l0.2-1c-0.9,0.9-2.1,1.5-3.4,1.5c-2.3,0-3.2-1.6-3.2-3.7
	c0-1.8,0.6-3.7,1.9-5c0.9-1,2.1-1.6,3.4-1.6c1,0,2.1,0.5,2.6,1.4l0.9-5.4l0.3-0.3l0.7-0.1l0.3,0.3 M594.9,365.2
	c-0.3-1-1.2-1.7-2.3-1.7c-1,0-1.9,0.5-2.6,1.3c-0.9,1.1-1.4,2.8-1.4,4.2c0,1.7,0.7,2.8,2.2,2.8c1.1,0,2.4-0.7,3.1-1.6L594.9,365.2z"
	/>
<path class="st3" d="M608.7,365.1c1.7,0.1,2.9,1.1,2.9,2.9c0,1.2-0.6,2.5-1.4,3.3c-1.1,1-2.7,1.3-4.4,1.3h-3.2l-0.3-0.3l2.4-13.4
	l0.4-0.4h2.7c2.1,0,3.9,0.7,3.9,2.7C611.8,363,610.5,364.7,608.7,365.1 M605.9,371.5c1.2,0,2.3-0.2,3.1-0.8c0.8-0.6,1.3-1.7,1.3-2.7
	c0-0.8-0.3-1.4-0.9-1.7c-0.7-0.4-1.6-0.5-2.5-0.5h-1.9l-1,5.8H605.9z M606.6,364.7c1.2,0,2.3-0.4,3-1.2c0.5-0.5,0.7-1.3,0.7-2.2
	c0-1.6-1.4-1.7-2.9-1.7H606l-0.9,5H606.6z"/>
<path class="st3" d="M623.3,370.4c-1.3,1.3-3.3,2.2-5.9,2.2h-3.3l-0.3-0.3l2.3-13.4l0.4-0.4h2.5c2.4,0,3.8,0.2,4.9,1
	c1.1,0.8,1.7,2.2,1.7,4.1C625.7,366,624.9,368.7,623.3,370.4 M615.3,371.5h1.7c2,0,4-0.4,5.2-1.8c1.3-1.6,1.9-3.8,1.9-5.7
	c0-1.4-0.3-2.6-1.1-3.3c-0.8-0.9-2.2-1-3.6-1h-2L615.3,371.5z"/>
<path class="st4" d="M405.4,340.2h-14.1v-49h14c5.4,0,9.4,4.8,9.4,10.6c0,4.5-2.5,8.3-6,9.8c-1.8,0.8-4.8,0.9-7.4,1
	c-2.2,0-4.1,0-4.1,0l0,5.5c0,0,2.1,0,4.6-0.1c2.3,0,5,0,6.3,0.5c3.2,0.9,5.6,3.4,6.5,6.6c0.4,1.2,0.7,2.6,0.7,4
	C415.2,335.3,410.8,340.2,405.4,340.2 M385.3,340.2h-19v-49h19V340.2z M419.2,320.5c-1.3-2.2-3.1-4.2-5.1-5.6
	c3.9-2.9,6.5-7.7,6.5-13.1c0-4-0.8-6.3-2.4-8.8c-2.7-4.3-7.4-7.1-12.6-7.1h-45.1v59.9h44.7c3.8,0,7.4-1.1,10.1-3.4
	c3.6-3.1,5.9-8.1,5.9-13.4C421.2,325.9,420.6,323,419.2,320.5"/>
<path class="st4" d="M610.3,315.6c0,7.2-1.7,12.8-5,17.2c-3.4,4.6-9,7.4-14.3,7.4h-6.9v-49h7.7c5.6,0,10.6,2,14.3,7.4
	C609.2,302.7,610.5,307,610.3,315.6 M578.2,340.2h-18.9v-49h18.9V340.2z M529.2,340.2l-10.2-24.4v-24.6h15c4.2,0,7.3,2.1,9,6
	c0.6,1.3,0.8,2.7,0.8,4.2c0,2.8-0.8,4.9-2.2,6.9c-1.9,2.6-4.9,4.4-8.4,5.1l12,26.8H529.2z M513.3,340.2h-17.7v-49h17.7V340.2z
	 M463.3,340.2l-16.3-49h19.2l16.4,49H463.3z M444.1,340.2h-17.7l15.8-45.5l8.5,25.3L444.1,340.2z M609.5,293.9
	c-2.7-3.2-6.2-5.5-10.2-7c-3-1-6.2-1.1-9.4-1.1h-36.5v58.2l-12.1-27.3c4.9-2.7,8.4-7.4,8.5-14.7c0.1-9.4-6.5-16.2-14.5-16.2h-45.6
	v57.9l-19.3-57.9H439l-20.8,59.9h30l5.3-16.7l5.6,16.7h59.8v-15l6.3,15h64.5c6.7,0,13.5-2.5,18.1-7.3c3.2-3.3,5.5-7.5,6.8-12.3
	c0.9-3.3,1.2-6.8,1.4-10.4C616.5,305.1,614.1,299.3,609.5,293.9"/>
</svg>
